<?xml version="1.0" encoding="UTF-8"?>
<svg version="1.1" xmlns="http://www.w3.org/2000/svg" width="1024" height="1024">
<path d="M0 0 C337.92 0 675.84 0 1024 0 C1024 337.92 1024 675.84 1024 1024 C686.08 1024 348.16 1024 0 1024 C0 686.08 0 348.16 0 0 Z " fill="#FDFEFD" transform="translate(0,0)"/>
<path d="M0 0 C2.96476122 2.03676685 5.45688162 4.46582053 8 7 C8.53230225 7.51111328 9.06460449 8.02222656 9.61303711 8.54882812 C13.73520603 12.557698 17.295888 16.73790718 20.6875 21.375 C21.19949951 22.06706543 21.71149902 22.75913086 22.23901367 23.47216797 C36.94163522 43.43680404 50.78705546 64.01618755 64.375 84.75 C64.7996756 85.39763306 65.2243512 86.04526611 65.66189575 86.71252441 C66.86727609 88.55214439 68.07080299 90.39295906 69.2734375 92.234375 C69.96872559 93.29881836 70.66401367 94.36326172 71.38037109 95.45996094 C75.92702196 102.59040345 73.43825653 111.504358 71.7578125 119.453125 C71.22891771 121.72238869 70.68391534 123.98794319 70.125 126.25 C69.67024292 128.10262451 69.67024292 128.10262451 69.20629883 129.99267578 C57.76540504 175.53878029 39.71539562 228.70594338 -1.8125 255.1875 C-7.59535005 258.52445907 -13.68410013 260.87329928 -20 263 C-20.73605469 263.24878906 -21.47210938 263.49757813 -22.23046875 263.75390625 C-34.42684787 267.12737282 -48.04096531 265.25387163 -60 262 C-61.04285156 261.73316406 -62.08570313 261.46632813 -63.16015625 261.19140625 C-80.16741799 256.44960465 -95.049766 247.64351187 -109 237 C-101.66985015 245.65004822 -93.91927721 253.40785303 -85.06640625 260.5 C-81.57997887 263.34243761 -78.1960774 266.28673459 -74.8125 269.25 C-69.59479897 273.81281813 -64.28350167 278.22802242 -58.875 282.5625 C-27.1229045 308.11427722 -27.1229045 308.11427722 -24.34765625 323.65234375 C-23.86783549 331.94398328 -25.22728884 337.28097652 -30.61328125 343.64453125 C-34.45025317 347.43126458 -38.405481 350.2111296 -43 353 C-44.00788574 353.67699951 -45.01577148 354.35399902 -46.05419922 355.05151367 C-56.99686232 362.00418072 -66.8946883 362.0277301 -79.5625 361.625 C-81.59956314 361.58884652 -83.63667675 361.55544155 -85.67382812 361.5246582 C-91.78520902 361.41531034 -97.89168846 361.21903432 -104 361 C-104.90272644 360.96932434 -105.80545288 360.93864868 -106.73553467 360.90704346 C-132.66962971 360.01584366 -158.77875007 358.48090028 -184.375 354.0625 C-185.24253906 353.91699707 -186.11007812 353.77149414 -187.00390625 353.62158203 C-192.48274472 352.59266662 -198.9228473 351.0771527 -203 347 C-206.28955973 327.67383658 -191.96578156 305.66825533 -184 289 C-182.89569278 286.66933742 -181.79152681 284.33860792 -180.6875 282.0078125 C-174.81521834 269.66400147 -168.7372001 257.46679354 -162.28320312 245.41796875 C-160.89324653 242.79884202 -159.53015514 240.16693839 -158.171875 237.53125 C-150.220138 222.11295784 -141.96223267 206.85865478 -133 192 C-129.5027849 193.16573837 -129.16170179 194.29235749 -127.26953125 197.26171875 C-123.30686506 202.68752322 -117.84515173 206.19626846 -112.0625 209.4375 C-106.51442379 212.56754554 -101.06964598 216.01571136 -97 221 C-97 222.32 -97 223.64 -97 225 C-98.98 225.33 -100.96 225.66 -103 226 C-101.65384993 231.57547231 -97.95772601 233.45886526 -93.375 236.3125 C-92.66859375 236.76689453 -91.9621875 237.22128906 -91.234375 237.68945312 C-89.49702317 238.80464518 -87.74947204 239.90391959 -86 241 C-86.60491181 238.31097512 -87.34007826 236.27744187 -88.53515625 233.73828125 C-91.70606902 226.48247537 -91.2632842 216.21960289 -88.4375 208.875 C-87.65987073 207.23302741 -86.84255534 205.60962162 -86 204 C-85.40126554 202.79675441 -84.80510136 201.59222786 -84.2109375 200.38671875 C-82.98890926 197.91493903 -81.74631619 195.45801724 -80.48828125 193.00390625 C-75.5215113 182.97911335 -76.76035436 168.17207602 -79.4375 157.5 C-82.84160204 147.4330648 -88.5900941 138.50737675 -97 132 C-95.24282422 126.89385391 -92.41309993 122.46594473 -89.625 117.875 C-89.09334229 116.99481201 -88.56168457 116.11462402 -88.01391602 115.20776367 C-82.46685269 106.05955957 -76.76709299 97.01071487 -71 88 C-70.55865723 87.3090625 -70.11731445 86.618125 -69.66259766 85.90625 C-57.55656318 66.98061926 -45.18577192 48.19359306 -32 30 C-31.5054834 29.31470215 -31.0109668 28.6294043 -30.50146484 27.92333984 C-9.14352502 -1.55267406 -9.14352502 -1.55267406 0 0 Z " fill="#E72446" transform="translate(505,259)"/>
<path d="M0 0 C3.25993245 2.99881482 5.40361627 6.06292971 7.6171875 9.890625 C7.95076263 10.46330109 8.28433777 11.03597717 8.62802124 11.62600708 C9.71623628 13.49732456 10.79563815 15.37356455 11.875 17.25 C12.63580638 18.56235211 13.39720697 19.8743599 14.15917969 21.18603516 C15.70571808 23.84988512 17.24907645 26.5155382 18.79003906 29.18261719 C20.77223958 32.61074897 22.76965102 36.02974294 24.7734375 39.4453125 C32.65699552 52.88473535 40.38354739 66.40752249 48 80 C48.65645508 81.17006592 48.65645508 81.17006592 49.32617188 82.36376953 C52.24022451 87.56337592 55.12939624 92.77628588 58 98 C58.47872559 98.87108398 58.95745117 99.74216797 59.45068359 100.63964844 C66.72118519 113.89966955 73.7770653 127.26092737 80.68969727 140.70996094 C83.60578046 146.38189628 86.53895002 152.03965847 89.58496094 157.64306641 C98.558541 174.20416651 106.46196178 191.45944234 113.3125 209 C113.69148437 209.93529541 114.07046875 210.87059082 114.4609375 211.83422852 C116.90089071 218.31390463 118.41925304 225.09487775 117 232 C110.13990009 238.64381101 96.39353584 239.22597076 87.2421875 240.45703125 C86.3022998 240.58366653 85.36241211 240.71030182 84.39404297 240.84077454 C54.90928281 244.67978663 24.72048208 247.32465951 -5.01977539 247.77334595 C-6.61704435 247.79921306 -8.21416332 247.83785681 -9.81079102 247.88998413 C-21.52093452 248.23735336 -21.52093452 248.23735336 -24.96899414 245.3527832 C-26.32360232 243.27200855 -27.18565596 241.33963203 -28 239 C-28.47566406 238.07316406 -28.95132813 237.14632812 -29.44140625 236.19140625 C-36.13864887 220.48672234 -38.19911776 204.57953795 -38.1875 187.625 C-38.18722809 186.9573764 -38.18695618 186.28975281 -38.18667603 185.60189819 C-38.16806183 175.65402619 -37.79644058 165.8930027 -36.30761719 156.05126953 C-35.99286879 153.95244728 -35.71753705 151.85081933 -35.4453125 149.74609375 C-32.86432831 130.85836004 -28.0784841 112.10453628 -23.0234375 93.7421875 C-21.3785598 87.72771102 -19.83814286 81.68597771 -18.27661133 75.64941406 C-17.15803608 71.34865493 -16.03501218 67.05376657 -14.78515625 62.7890625 C-11.66434128 52.1271522 -9.21180433 41.34293178 -6.8125 30.5 C-6.63801331 29.71146637 -6.46352661 28.92293274 -6.28375244 28.11050415 C-4.57726787 20.377801 -2.87829844 12.64576352 -1.40112305 4.86523438 C-1 3 -1 3 0 0 Z " fill="#E72446" transform="translate(587,374)"/>
<path d="M0 0 C5.94 -0.04125 11.88 -0.0825 18 -0.125 C19.85882812 -0.14320801 21.71765625 -0.16141602 23.6328125 -0.18017578 C25.13020541 -0.18602497 26.62760154 -0.19111952 28.125 -0.1953125 C28.88296875 -0.20554443 29.6409375 -0.21577637 30.421875 -0.22631836 C40.21285376 -0.22947267 49.91171243 2.4110706 57.30859375 9.08203125 C64.04890841 16.341783 66.57517732 22.52382699 66.5 32.3125 C66.49572998 33.15119629 66.49145996 33.98989258 66.48706055 34.85400391 C66.25892288 43.16530885 63.94592712 48.61218381 58.5 54.875 C57.675 55.57625 56.85 56.2775 56 57 C55.23840576 57.65774414 54.47681152 58.31548828 53.69213867 58.99316406 C43.46743289 66.61509945 30.2528836 65.48552379 18.1875 65.25 C12.185625 65.1675 6.18375 65.085 0 65 C0 43.55 0 22.1 0 0 Z " fill="#E72A48" transform="translate(642,677)"/>
<path d="M0 0 C8.3221875 -0.0928125 8.3221875 -0.0928125 16.8125 -0.1875 C19.40315308 -0.22846802 19.40315308 -0.22846802 22.04614258 -0.27026367 C33.10311654 -0.37255893 44.57567631 -0.19477809 53 8 C58.39903424 15.10399242 58.72273164 21.28592134 58 30 C56.32183026 36.2678629 52.29544206 40.44003895 47 44 C39.75065804 47.6882617 33.07938788 48.14944581 25.125 48.0625 C21.103125 48.0315625 21.103125 48.0315625 17 48 C17 53.61 17 59.22 17 65 C11.39 65 5.78 65 0 65 C0 43.55 0 22.1 0 0 Z " fill="#E82B48" transform="translate(503,677)"/>
<path d="M0 0 C8.53875 -0.12375 8.53875 -0.12375 17.25 -0.25 C19.02020508 -0.28641602 20.79041016 -0.32283203 22.61425781 -0.36035156 C32.73643015 -0.48350985 42.46665282 -0.23717955 50.8515625 6.18359375 C51.72941406 7.29927734 51.72941406 7.29927734 52.625 8.4375 C53.23601562 9.17871094 53.84703125 9.91992188 54.4765625 10.68359375 C58.37139373 16.60573457 58.74233007 22.07158602 58 29 C56.20810419 36.16758325 52.15289273 41.02378736 46 45 C37.27866385 49.61524569 26.55344974 48.26482869 17 48 C17 53.61 17 59.22 17 65 C11.39 65 5.78 65 0 65 C0 43.55 0 22.1 0 0 Z " fill="#E82947" transform="translate(276,677)"/>
<path d="M0 0 C1.58206057 0.00667536 3.16410534 0.0186375 4.74609375 0.03515625 C5.55240234 0.03966797 6.35871094 0.04417969 7.18945312 0.04882812 C9.18753131 0.06065107 11.18557158 0.07858711 13.18359375 0.09765625 C13.89455537 1.6973199 14.60551509 3.29698439 15.31646729 4.89665222 C15.95783533 6.33970961 16.59923447 7.78275318 17.24066162 9.2257843 C19.03355346 13.25941726 20.82588067 17.29329959 22.6171875 21.32763672 C26.03935324 29.03348448 29.46644022 36.7369416 32.91796875 44.4296875 C33.47895182 45.68248626 34.03982778 46.93533298 34.60058594 48.18823242 C35.63990616 50.50875045 36.68213185 52.82796978 37.72753906 55.14575195 C38.41734863 56.68815552 38.41734863 56.68815552 39.12109375 58.26171875 C39.52199219 59.1532666 39.92289062 60.04481445 40.3359375 60.96337891 C41.18359375 63.09765625 41.18359375 63.09765625 41.18359375 65.09765625 C35.57359375 65.09765625 29.96359375 65.09765625 24.18359375 65.09765625 C21.75897361 60.48305663 20.21932231 57.27629905 19.18359375 52.09765625 C9.28359375 52.42765625 -0.61640625 52.75765625 -10.81640625 53.09765625 C-12.46640625 57.05765625 -14.11640625 61.01765625 -15.81640625 65.09765625 C-21.42640625 65.09765625 -27.03640625 65.09765625 -32.81640625 65.09765625 C-30.91027767 59.11111214 -28.75159731 53.44208721 -26.0859375 47.7578125 C-25.73182297 46.99198349 -25.37770844 46.22615448 -25.01286316 45.43711853 C-23.88935558 43.00935776 -22.75948626 40.58463036 -21.62890625 38.16015625 C-20.15415663 34.98534353 -18.68226531 31.80921219 -17.2109375 28.6328125 C-16.84904327 27.85330231 -16.48714905 27.07379211 -16.11428833 26.2706604 C-13.0972205 19.75382411 -10.17489781 13.19693755 -7.30049133 6.61598206 C-4.44318195 0.11369452 -4.44318195 0.11369452 0 0 Z " fill="#E62B47" transform="translate(227.81640625,676.90234375)"/>
<path d="M0 0 C1.58206057 0.00667536 3.16410534 0.0186375 4.74609375 0.03515625 C5.55240234 0.03966797 6.35871094 0.04417969 7.18945312 0.04882812 C9.18753131 0.06065107 11.18557158 0.07858711 13.18359375 0.09765625 C13.67649902 1.19416504 14.1694043 2.29067383 14.67724609 3.42041016 C16.55355102 7.59410978 18.43058038 11.76748336 20.30767822 15.94082642 C21.5531513 18.71055315 22.79783992 21.48063149 24.04248047 24.25073242 C27.53853263 32.02770963 31.03520895 39.80362703 34.60546875 47.546875 C35.30857178 49.07417236 35.30857178 49.07417236 36.02587891 50.63232422 C36.85921788 52.4369932 37.69717862 54.23953775 38.54052734 56.03955078 C38.89969238 56.8179834 39.25885742 57.59641602 39.62890625 58.3984375 C40.08547607 59.37550659 40.08547607 59.37550659 40.55126953 60.37231445 C41.18359375 62.09765625 41.18359375 62.09765625 41.18359375 65.09765625 C35.57359375 65.09765625 29.96359375 65.09765625 24.18359375 65.09765625 C21.70859375 59.15765625 21.70859375 59.15765625 19.18359375 53.09765625 C4.33359375 52.60265625 4.33359375 52.60265625 -10.81640625 52.09765625 C-11.80640625 55.06765625 -12.79640625 58.03765625 -13.81640625 61.09765625 C-14.47640625 62.41765625 -15.13640625 63.73765625 -15.81640625 65.09765625 C-21.42640625 65.09765625 -27.03640625 65.09765625 -32.81640625 65.09765625 C-31.26261418 60.43628003 -29.53545653 56.09635614 -27.47265625 51.6640625 C-26.98418968 50.60352409 -26.98418968 50.60352409 -26.4858551 49.52156067 C-25.790728 48.01248036 -25.09432913 46.50398531 -24.39675903 44.99603271 C-18.65954024 32.59134922 -13.01136586 20.16015829 -7.6484375 7.58813477 C-7.28234375 6.73276123 -6.91625 5.8773877 -6.5390625 4.99609375 C-6.22718994 4.26052246 -5.91531738 3.52495117 -5.59399414 2.76708984 C-4.11308132 -0.41233931 -3.97948224 0.10182913 0 0 Z " fill="#E72946" transform="translate(593.81640625,676.90234375)"/>
<path d="M0 0 C16.83 0 33.66 0 51 0 C51 4.29 51 8.58 51 13 C39.78 13 28.56 13 17 13 C17 17.29 17 21.58 17 26 C26.9 26 36.8 26 47 26 C47 29.96 47 33.92 47 38 C37.1 38 27.2 38 17 38 C17 42.62 17 47.24 17 52 C28.88 52 40.76 52 53 52 C53 56.29 53 60.58 53 65 C35.51 65 18.02 65 0 65 C0 43.55 0 22.1 0 0 Z " fill="#E82D48" transform="translate(344,677)"/>
<path d="M0 0 C16.5 0 33 0 50 0 C50 4.29 50 8.58 50 13 C38.78 13 27.56 13 16 13 C16 17.29 16 21.58 16 26 C25.9 26 35.8 26 46 26 C46 29.96 46 33.92 46 38 C36.1 38 26.2 38 16 38 C16 42.62 16 47.24 16 52 C27.88 52 39.76 52 52 52 C52 56.29 52 60.58 52 65 C34.84 65 17.68 65 0 65 C0 43.55 0 22.1 0 0 Z " fill="#E82A46" transform="translate(720,677)"/>
<path d="M0 0 C13.12920303 -1.42938904 13.12920303 -1.42938904 19 0 C23.02758669 3.41504659 24.82668867 7.26137423 27 12 C29.3536696 16.18030514 29.3536696 16.18030514 33 19 C33.2475 18.49984375 33.495 17.9996875 33.75 17.484375 C34.36875 16.25460937 34.36875 16.25460937 35 15 C35.268125 14.42701172 35.53625 13.85402344 35.8125 13.26367188 C38.1729255 8.39037673 40.66587299 3.38625695 45 0 C50.85304773 -1.81739053 57.04260325 -0.87608776 63 0 C61.48203163 3.2378317 59.64700545 6.11286598 57.62890625 9.0625 C56.97212891 10.02414062 56.31535156 10.98578125 55.63867188 11.9765625 C54.6109668 13.47316406 54.6109668 13.47316406 53.5625 15 C52.88123047 15.99773438 52.19996094 16.99546875 51.49804688 18.0234375 C46.19178803 25.77753955 46.19178803 25.77753955 44.21850586 28.06640625 C42.78832437 29.90819307 42.78832437 29.90819307 43.16210938 32.03540039 C44.04384445 34.10280195 45.02809777 35.65970198 46.40625 37.43359375 C46.89899414 38.0766748 47.39173828 38.71975586 47.89941406 39.38232422 C48.42760742 40.06053223 48.95580078 40.73874023 49.5 41.4375 C50.59033938 42.86451363 51.67885766 44.2929204 52.765625 45.72265625 C53.30896484 46.43695801 53.85230469 47.15125977 54.41210938 47.88720703 C56.75577742 51.00561159 59.01977573 54.17477466 61.25 57.375 C61.97703125 58.41398438 62.7040625 59.45296875 63.453125 60.5234375 C65 63 65 63 65 65 C58.68405068 66.14047237 52.16990751 67.25037394 46 65 C40.71147853 60.36450229 37.40535226 53.93461301 34.23242188 47.74414062 C33.82572266 47.16857422 33.41902344 46.59300781 33 46 C32.01 46 31.02 46 30 46 C28.66923609 47.79632511 28.66923609 47.79632511 27.53125 50.15625 C19.80787026 63.97587475 19.80787026 63.97587475 14.53271484 65.89990234 C8.92420778 66.67598147 3.54032786 66.00041823 -2 65 C1.16427347 59.12123757 4.92294879 53.88844307 8.9375 48.5625 C13.23835463 42.84779072 17.29592736 37.12191133 21 31 C20.23816406 29.99582031 19.47632813 28.99164062 18.69140625 27.95703125 C13.61757812 21.24632485 8.571303 14.52036548 3.75 7.625 C2.65945313 6.06652344 2.65945313 6.06652344 1.546875 4.4765625 C0 2 0 2 0 0 Z " fill="#E82B48" transform="translate(403,677)"/>
<path d="M0 0 C8.96369982 5.80860693 14.79945588 13.77336763 18.1875 23.9375 C19.38859767 41.63892301 19.38859767 41.63892301 14.1875 47.9375 C9.4488572 52.83698446 5.35461194 54.13122701 -1.375 54.375 C-8.68170806 54.28470083 -13.36613077 52.84583969 -18.8125 47.9375 C-27.92302997 37.84583603 -30.79982649 28.31700069 -30.2890625 14.98828125 C-29.75987765 8.57450177 -26.87859798 4.77734647 -22.27734375 0.515625 C-15.9085039 -4.0536655 -6.71389097 -3.46597448 0 0 Z " fill="#FDFCFC" transform="translate(485.8125,447.0625)"/>
<path d="M0 0 C5.61 0 11.22 0 17 0 C17 17.16 17 34.32 17 52 C27.89 52 38.78 52 50 52 C50 56.29 50 60.58 50 65 C33.5 65 17 65 0 65 C0 43.55 0 22.1 0 0 Z " fill="#E82F49" transform="translate(783,677)"/>
<path d="M0 0 C21.6097561 0 21.6097561 0 30 8 C32.43944431 11.6217006 32.33223194 15.08964019 32.375 19.375 C32.40335938 20.66148437 32.43171875 21.94796875 32.4609375 23.2734375 C31.7972426 28.63924201 29.46877491 31.64420777 25.5625 35.25 C16.92532459 41.14855882 12.05081779 39 0 39 C0 26.13 0 13.26 0 0 Z " fill="#FBFAFA" transform="translate(659,690)"/>
<path d="M0 0 C2.51625 -0.061875 5.0325 -0.12375 7.625 -0.1875 C8.79603271 -0.22846802 8.79603271 -0.22846802 9.99072266 -0.27026367 C15.5611607 -0.33602284 19.62311698 0.86080528 23.875 4.6875 C25.53902152 8.10798869 25.65134448 11.31880591 25 15 C23.13428935 18.30087269 21.83293673 19.6472268 18.34375 21.125 C14.53952929 22.12049701 11.01877921 22.22232295 7.125 22.125 C4.77375 22.08375 2.4225 22.0425 0 22 C0 14.74 0 7.48 0 0 Z " fill="#FAF1F3" transform="translate(292,690)"/>
<path d="M0 0 C3.43761572 2.12108204 5.77560839 4.1042085 7 8 C7.47357835 12.26220512 7.29830613 14.4460029 5.25 18.25 C0.79870524 23.69047137 0.79870524 23.69047137 -3.04296875 24.3515625 C-7.21318274 24.61700326 -10.10645472 24.4017412 -13.4375 21.75 C-16.81439385 18.12601636 -17.82874435 16.54130086 -18.375 11.625 C-17.8302996 6.3595628 -15.72016382 3.52357367 -11.8125 0.0625 C-7.69271475 -1.49386332 -4.2187977 -1.13317978 0 0 Z " fill="#E7314D" transform="translate(598,264)"/>
<path d="M0 0 C16.52358491 -0.43867925 16.52358491 -0.43867925 22 3 C24.6790573 7.01858595 24.69610694 10.27641721 24 15 C22.20606332 17.87029869 21.01736724 19.49131638 18 21 C16.62451844 21.08308638 15.24514204 21.10736016 13.8671875 21.09765625 C13.14128418 21.09515869 12.41538086 21.09266113 11.66748047 21.09008789 C10.74596191 21.08098389 9.82444336 21.07187988 8.875 21.0625 C5.94625 21.041875 3.0175 21.02125 0 21 C0 14.07 0 7.14 0 0 Z " fill="#FCFBFB" transform="translate(520,690)"/>
<path d="M0 0 C0.66 0 1.32 0 2 0 C3.3417678 3.26743656 4.67194359 6.53946908 6 9.8125 C6.3815625 10.74126953 6.763125 11.67003906 7.15625 12.62695312 C7.5171875 13.51962891 7.878125 14.41230469 8.25 15.33203125 C8.58515625 16.15421143 8.9203125 16.9763916 9.265625 17.82348633 C10 20 10 20 10 23 C4.06 23 -1.88 23 -8 23 C-6.875 16.25 -6.875 16.25 -5.37109375 12.6953125 C-5.05849609 11.94765625 -4.74589844 11.2 -4.42382812 10.4296875 C-4.09833984 9.66914062 -3.77285156 8.90859375 -3.4375 8.125 C-3.10814453 7.34125 -2.77878906 6.5575 -2.43945312 5.75 C-1.63203214 3.83091244 -0.81680231 1.9151135 0 0 Z " fill="#F8E9EB" transform="translate(231,694)"/>
<path d="M0 0 C0.66 0 1.32 0 2 0 C3.3417678 3.26743656 4.67194359 6.53946908 6 9.8125 C6.3815625 10.74126953 6.763125 11.67003906 7.15625 12.62695312 C7.5171875 13.51962891 7.878125 14.41230469 8.25 15.33203125 C8.58515625 16.15421143 8.9203125 16.9763916 9.265625 17.82348633 C10 20 10 20 10 23 C4.06 23 -1.88 23 -8 23 C-7.29823112 19.4911556 -6.65218934 16.81189669 -5.37109375 13.57421875 C-5.05849609 12.77822266 -4.74589844 11.98222656 -4.42382812 11.16210938 C-3.9355957 9.93717773 -3.9355957 9.93717773 -3.4375 8.6875 C-3.10814453 7.85154297 -2.77878906 7.01558594 -2.43945312 6.15429688 C-1.63001123 4.10136454 -0.81676543 2.05002714 0 0 Z " fill="#F6EAEC" transform="translate(597,694)"/>
<path d="M0 0 C3.34708051 1.54841575 6.24667512 3.49105864 9.25 5.625 C10.14203125 6.25664062 11.0340625 6.88828125 11.953125 7.5390625 C12.96632813 8.26222656 12.96632813 8.26222656 14 9 C12.02 9.99 12.02 9.99 10 11 C8.8944811 10.06409496 7.79064547 9.12620142 6.6875 8.1875 C6.07261719 7.66542969 5.45773437 7.14335937 4.82421875 6.60546875 C1.48047722 3.6626898 1.48047722 3.6626898 0 2 C0 1.34 0 0.68 0 0 Z " fill="#F1D9DE" transform="translate(396,496)"/>
<path d="M0 0 C2.00720923 0.28674418 4.0085944 0.61866701 6 1 C5.67 2.98 5.34 4.96 5 7 C3.35 6.67 1.7 6.34 0 6 C-0.38218767 4.34385343 -0.71395102 2.67542976 -1 1 C-0.67 0.67 -0.34 0.34 0 0 Z " fill="#E6455F" transform="translate(382,437)"/>
<path d="M0 0 C1.67542976 0.28604898 3.34385343 0.61781233 5 1 C5 2.65 5 4.3 5 6 C2.625 6.625 2.625 6.625 0 7 C-0.66 6.34 -1.32 5.68 -2 5 C-1.46428571 1.46428571 -1.46428571 1.46428571 0 0 Z " fill="#E33958" transform="translate(393,435)"/>
<path d="M0 0 C1.2065625 0.0309375 1.2065625 0.0309375 2.4375 0.0625 C3.0625 2.4375 3.0625 2.4375 3.4375 5.0625 C2.7775 5.7225 2.1175 6.3825 1.4375 7.0625 C-0.6875 6.6875 -0.6875 6.6875 -2.5625 6.0625 C-2.94468767 4.40635343 -3.27645102 2.73792976 -3.5625 1.0625 C-2.5625 0.0625 -2.5625 0.0625 0 0 Z " fill="#E73958" transform="translate(405.5625,432.9375)"/>
<path d="M0 0 C2.125 0.375 2.125 0.375 4 1 C4.38218767 2.65614657 4.71395102 4.32457024 5 6 C4 7 4 7 1.4375 7.0625 C0.2309375 7.0315625 0.2309375 7.0315625 -1 7 C-1.625 4.625 -1.625 4.625 -2 2 C-1.34 1.34 -0.68 0.68 0 0 Z " fill="#E64D6E" transform="translate(391,423)"/>
<path d="M0 0 C1.67542976 0.28604898 3.34385343 0.61781233 5 1 C5 2.65 5 4.3 5 6 C2.625 6.625 2.625 6.625 0 7 C-0.66 6.34 -1.32 5.68 -2 5 C-1.46428571 1.46428571 -1.46428571 1.46428571 0 0 Z " fill="#E53F5F" transform="translate(388,412)"/>
<path d="M0 0 C1.2065625 0.0309375 1.2065625 0.0309375 2.4375 0.0625 C3.0625 2.4375 3.0625 2.4375 3.4375 5.0625 C2.7775 5.7225 2.1175 6.3825 1.4375 7.0625 C-0.6875 6.6875 -0.6875 6.6875 -2.5625 6.0625 C-2.94468767 4.40635343 -3.27645102 2.73792976 -3.5625 1.0625 C-2.5625 0.0625 -2.5625 0.0625 0 0 Z " fill="#E74668" transform="translate(400.5625,409.9375)"/>
<path d="M0 0 C1.2065625 0.0309375 1.2065625 0.0309375 2.4375 0.0625 C3.0625 2.4375 3.0625 2.4375 3.4375 5.0625 C2.7775 5.7225 2.1175 6.3825 1.4375 7.0625 C-0.6875 6.6875 -0.6875 6.6875 -2.5625 6.0625 C-2.94468767 4.40635343 -3.27645102 2.73792976 -3.5625 1.0625 C-2.5625 0.0625 -2.5625 0.0625 0 0 Z " fill="#E33A58" transform="translate(387.5625,400.9375)"/>
<path d="M0 0 C1.2065625 0.0309375 1.2065625 0.0309375 2.4375 0.0625 C3.0625 2.4375 3.0625 2.4375 3.4375 5.0625 C2.7775 5.7225 2.1175 6.3825 1.4375 7.0625 C-0.6875 6.6875 -0.6875 6.6875 -2.5625 6.0625 C-2.94468767 4.40635343 -3.27645102 2.73792976 -3.5625 1.0625 C-2.5625 0.0625 -2.5625 0.0625 0 0 Z " fill="#E33753" transform="translate(413.5625,418.9375)"/>
<path d="M0 0 C1.67542976 0.28604898 3.34385343 0.61781233 5 1 C5.33 1.99 5.66 2.98 6 4 C5.01 5.485 5.01 5.485 4 7 C2.35 6.67 0.7 6.34 -1 6 C-1.042721 4.33388095 -1.04063832 2.66617115 -1 1 C-0.67 0.67 -0.34 0.34 0 0 Z " fill="#E44665" transform="translate(380,426)"/>
<path d="M0 0 C2.0625 0.4375 2.0625 0.4375 4 1 C4.625 2.875 4.625 2.875 5 5 C4.34 5.66 3.68 6.32 3 7 C0.375 6.625 0.375 6.625 -2 6 C-1.125 1.125 -1.125 1.125 0 0 Z " fill="#E53B59" transform="translate(378,414)"/>
<path d="M0 0 C1.67542976 0.28604898 3.34385343 0.61781233 5 1 C5 2.65 5 4.3 5 6 C3.34385343 6.38218767 1.67542976 6.71395102 0 7 C-1 6 -1 6 -1.125 3.5 C-1 1 -1 1 0 0 Z " fill="#E53D59" transform="translate(395,446)"/>
<path d="M0 0 C1.67542976 0.28604898 3.34385343 0.61781233 5 1 C5 2.65 5 4.3 5 6 C3.34385343 6.38218767 1.67542976 6.71395102 0 7 C-1 6 -1 6 -1.125 3.5 C-1 1 -1 1 0 0 Z " fill="#E73D5C" transform="translate(414,430)"/>
<path d="M0 0 C1.67542976 0.28604898 3.34385343 0.61781233 5 1 C5 2.65 5 4.3 5 6 C3.34385343 6.38218767 1.67542976 6.71395102 0 7 C-1 6 -1 6 -1.125 3.5 C-1 1 -1 1 0 0 Z " fill="#E53859" transform="translate(401,421)"/>
<path d="M0 0 C1.98 0 3.96 0 6 0 C6.38218767 1.65614657 6.71395102 3.32457024 7 5 C6 6 6 6 3.5 6.125 C1 6 1 6 0 5 C-0.04063832 3.33382885 -0.042721 1.66611905 0 0 Z " fill="#EB4363" transform="translate(408,408)"/>
<path d="M0 0 C1.67542976 0.28604898 3.34385343 0.61781233 5 1 C5 2.65 5 4.3 5 6 C3.34385343 6.38218767 1.67542976 6.71395102 0 7 C-1 6 -1 6 -1.125 3.5 C-1 1 -1 1 0 0 Z " fill="#E73A57" transform="translate(396,398)"/>
<path d="M0 0 C1.67542976 0.28604898 3.34385343 0.61781233 5 1 C5 2.65 5 4.3 5 6 C1.25 7.125 1.25 7.125 -1 6 C-1.042721 4.33388095 -1.04063832 2.66617115 -1 1 C-0.67 0.67 -0.34 0.34 0 0 Z " fill="#E54262" transform="translate(406,444)"/>
<path d="M0 0 C5.94 0 11.88 0 18 0 C16 4 16 4 14 6 C14.33 4.35 14.66 2.7 15 1 C10.05 1 5.1 1 0 1 C0 0.67 0 0.34 0 0 Z " fill="#EC4960" transform="translate(448,677)"/>
<path d="M0 0 C0.33 0 0.66 0 1 0 C1.33 4.62 1.66 9.24 2 14 C0.02 14.99 0.02 14.99 -2 16 C-1.34 10.72 -0.68 5.44 0 0 Z " fill="#ED627A" transform="translate(691,705)"/>
<path d="M0 0 C6.27 0 12.54 0 19 0 C18.67 0.66 18.34 1.32 18 2 C12 2 6 2 0 2 C0 1.34 0 0.68 0 0 Z " fill="#EB415D" transform="translate(403,677)"/>
<path d="M0 0 C0.66 0.33 1.32 0.66 2 1 C2 2.65 2 4.3 2 6 C0.35 6.66 -1.3 7.32 -3 8 C-3 6.68 -3 5.36 -3 4 C-2.34 4 -1.68 4 -1 4 C-0.67 2.68 -0.34 1.36 0 0 Z " fill="#F1E5E2" transform="translate(401,433)"/>
<path d="M0 0 C2.125 0.9375 2.125 0.9375 4 2 C1.525 3.485 1.525 3.485 -1 5 C-1.99 4.34 -2.98 3.68 -4 3 C-3.34 3 -2.68 3 -2 3 C-2 2.34 -2 1.68 -2 1 C-1.34 0.67 -0.68 0.34 0 0 Z " fill="#ED3149" transform="translate(323,716)"/>
<path d="M0 0 C0.66 0.33 1.32 0.66 2 1 C-0.64 3.64 -3.28 6.28 -6 9 C-6 6 -6 6 -3.5625 3.375 C-2.716875 2.59125 -1.87125 1.8075 -1 1 C-0.67 0.67 -0.34 0.34 0 0 Z " fill="#F4E0E1" transform="translate(465,447)"/>
<path d="M0 0 C1.98 0.495 1.98 0.495 4 1 C4 1.99 4 2.98 4 4 C2.35 4.33 0.7 4.66 -1 5 C-0.67 3.35 -0.34 1.7 0 0 Z " fill="#E24163" transform="translate(390,424)"/>
<path d="M0 0 C0.66 1.32 1.32 2.64 2 4 C1.01 4.33 0.02 4.66 -1 5 C-1 5.66 -1 6.32 -1 7 C-1.99 6.67 -2.98 6.34 -4 6 C-3.34 4.68 -2.68 3.36 -2 2 C-1.34 2.33 -0.68 2.66 0 3 C0 2.01 0 1.02 0 0 Z " fill="#F0D8D8" transform="translate(409,421)"/>
</svg>
